<svg xmlns="http://www.w3.org/2000/svg" width="114.404" height="40"><g fill="none"><rect width="106.036" height="39.158" x=".327" y=".466" fill="#fff" rx="7"/><path fill="#005f86" d="M106.123 5.252a4.845 4.845 0 0 0-4.85-4.842h-64.7v39.18h64.7c1.286 0 2.52-.51 3.43-1.418a4.837 4.837 0 0 0 1.42-3.424z"/><path fill="#005f86" d="M101.273 40H36.164V0h65.11a5.26 5.26 0 0 1 5.26 5.252v29.496a5.26 5.26 0 0 1-5.26 5.252m-64.288-.82h64.287a4.44 4.44 0 0 0 4.439-4.431V5.252A4.442 4.442 0 0 0 101.273.82H36.986v38.36zM16.022 13.222l-1.688 2.331c-.848 1.167-.586 3.233.573 4.068l3.137 2.26c.538.389.58.778.325 1.184l.456.338 1.59-2.197c.981-1.358.895-3.205-.56-4.264l-3.17-2.303c-.378-.276-.418-.66-.208-1.088l-.456-.324m2.715-10.291-2.634 3.637c-1.236 1.71-.779 4.615.902 5.858l4.333 3.175c.878.643.993 2.283.353 3.121l.367.276 2.989-4.196c1.341-1.885 1.263-4.67-.844-6.197l-4.634-3.36c-.65-.467-.972-1.27-.433-2.033l-.398-.28M11.794 25.75h3.49l.623 2.113h5.706l.622-2.113h3.492l-.457-1.554H12.25zm1.636 7.07c.612-.359.99-.886.99-1.608 0-1.444-1.185-2.032-2.478-2.032h-3.61v7.664h3.579c1.528 0 3.146-.666 2.885-2.422-.156-1.005-.554-1.243-1.365-1.604m-3.47-2.176h1.883c1.171 0 1.213 1.635.072 1.635H9.96zm2.096 4.754H9.96v-1.748h2.097c1.539 0 1.445 1.748 0 1.748zm8.54-2.576c.614-.36.99-.886.99-1.608 0-1.444-1.184-2.033-2.477-2.033H15.5v7.665h3.579c1.527 0 3.146-.666 2.885-2.422-.155-1.005-.554-1.243-1.365-1.604m-3.464-2.176h1.868c1.171 0 1.213 1.635.072 1.635h-1.94v-1.635zm2.092 4.752h-2.092V33.65h2.092c1.537 0 1.444 1.748 0 1.748zm9.904-.97c-.156-1.006-.554-1.244-1.365-1.604.614-.36.99-.886.99-1.608 0-1.444-1.184-2.033-2.478-2.033h-3.611v7.665h3.58c1.527 0 3.146-.666 2.885-2.422m-4.825-3.778h1.868c1.172 0 1.214 1.635.073 1.635h-1.946l.007-1.635zm2.092 4.752h-2.098V33.65h2.092c1.537 0 1.444 1.748 0 1.748z"/><path fill="#fff" d="m46.764 18.395-.35-.965h-2.448l-.36.965H42.22l2.209-5.7h1.523l2.2 5.7zm-1.573-4.487-.891 2.451h1.782zm3.277 1.64c0-1.751 1.326-2.953 3.038-2.953a2.614 2.614 0 0 1 2.388 1.4l-1.045.512c-.26-.5-.772-.82-1.335-.833-1.035 0-1.789.794-1.789 1.865 0 1.07.754 1.864 1.789 1.864a1.53 1.53 0 0 0 1.342-.827l1.039.516c-.411.71-1.13 1.4-2.388 1.4-1.705 0-3.039-1.19-3.039-2.944zm5.94 0c0-1.751 1.327-2.953 3.038-2.953a2.614 2.614 0 0 1 2.388 1.4l-1.044.512a1.557 1.557 0 0 0-1.347-.833c-1.035 0-1.788.794-1.788 1.865 0 1.07.753 1.864 1.788 1.864a1.53 1.53 0 0 0 1.343-.827l1.045.502c-.411.71-1.13 1.4-2.388 1.4-1.712.013-3.035-1.177-3.035-2.93zm9.44 2.847-1.12-2.02h-.89v2.02h-1.216v-5.7h2.671c1.19 0 1.917.777 1.917 1.837 0 1.008-.633 1.554-1.244 1.693L65.25 18.4zm.116-3.863c0-.479-.367-.777-.856-.777h-1.275v1.539h1.275c.494.007.856-.284.856-.762zm2.223 3.863v-5.7h4.046v1.068h-2.83v1.204h2.765v1.068h-2.765v1.29h2.825v1.067zm5.05 0v-5.7h2.25c1.788 0 3.03 1.136 3.03 2.855 0 1.718-1.244 2.844-3.03 2.844h-2.25zm4.046-2.845c0-1.009-.623-1.786-1.788-1.786H72.46v3.562h1.035c1.122 0 1.782-.811 1.782-1.778zm2.16 2.845v-5.7h1.216v5.7zm3.723 0v-4.632h-1.67v-1.068h4.56v1.068H82.39v4.632zm3.722 0v-5.7h4.047v1.068h-2.831v1.204h2.761v1.068h-2.761v1.29h2.825v1.067zm5.05 0v-5.7h2.251c1.789 0 3.03 1.136 3.03 2.855 0 1.718-1.245 2.844-3.03 2.844h-2.25zm4.047-2.845c0-1.009-.622-1.786-1.788-1.786h-1.035v3.562h1.035c1.124 0 1.782-.811 1.782-1.778zM42.828 28.184v-5.699h3.004c1.089 0 1.643.691 1.643 1.453 0 .718-.445 1.196-.984 1.306.608.094 1.09.684 1.09 1.399 0 .855-.573 1.539-1.661 1.539zm3.407-4.04a.622.622 0 0 0-.623-.621h-1.569v1.243h1.524c.41 0 .666-.257.666-.621zm.11 2.33c0-.358-.256-.665-.736-.665h-1.566v1.323h1.572c.452 0 .73-.25.73-.657zm2.211-.563v-3.426h1.246v3.384c0 .794.467 1.34 1.342 1.34.877 0 1.336-.546 1.336-1.34v-3.384h1.245v3.418c0 1.42-.839 2.384-2.575 2.384-1.738 0-2.594-.974-2.594-2.376zm5.955 1.47.658-.923c.475.494 1.13.771 1.815.77.668 0 .993-.311.993-.633 0-.418-.53-.538-1.155-.692-.933-.213-2.13-.466-2.13-1.768 0-.948.822-1.734 2.164-1.734.908 0 1.661.274 2.226.794l-.677.89a2.449 2.449 0 0 0-1.66-.621c-.522 0-.813.231-.813.572 0 .368.522.486 1.138.632.934.222 2.14.505 2.14 1.795 0 1.042-.745 1.829-2.285 1.829-1.096-.011-1.883-.373-2.414-.91zm5.578.803v-5.699h1.216v5.7zm6.345 0-2.722-3.716v3.716h-1.216v-5.699h1.246l2.645 3.574v-3.574h1.216v5.7zm2.37 0v-5.699h4.047v1.067h-2.84v1.205h2.765v1.067h-2.764v1.29h2.823v1.068zm4.654-.803.658-.923c.474.494 1.13.771 1.815.77.668 0 .992-.311.992-.633 0-.418-.53-.538-1.154-.692-.934-.213-2.13-.466-2.13-1.768 0-.948.82-1.734 2.164-1.734.907 0 1.66.274 2.226.794l-.665.89a2.455 2.455 0 0 0-1.66-.621c-.522 0-.813.231-.813.572 0 .368.523.486 1.138.632.934.222 2.14.505 2.14 1.795 0 1.042-.745 1.829-2.285 1.829-1.103-.011-1.891-.373-2.426-.91zm5.2 0 .66-.923c.474.494 1.13.771 1.813.77.669 0 .993-.311.993-.633 0-.418-.53-.538-1.154-.692-.934-.213-2.13-.466-2.13-1.768 0-.948.82-1.734 2.164-1.734.908 0 1.661.274 2.226.794l-.678.89a2.455 2.455 0 0 0-1.66-.621c-.522 0-.812.231-.812.572 0 .368.523.486 1.137.632.934.222 2.14.505 2.14 1.795 0 1.042-.744 1.829-2.284 1.829-1.098-.011-1.885-.373-2.414-.91z"/><path fill="#005f86" d="M107.643 36.633v-.019a3.378 3.378 0 0 1 3.371-3.384 3.378 3.378 0 0 1 3.39 3.367v.018a3.378 3.378 0 0 1-3.37 3.384 3.378 3.378 0 0 1-3.39-3.366zm6.453-.019v-.018a3.067 3.067 0 0 0-1.545-2.652 3.076 3.076 0 0 0-3.072.01 3.067 3.067 0 0 0-1.527 2.66v.019a3.067 3.067 0 0 0 1.544 2.652 3.076 3.076 0 0 0 3.072-.01 3.067 3.067 0 0 0 1.527-2.66zm-4.399-1.827h1.557c.377-.017.745.113 1.027.363a.91.91 0 0 1 .28.672v.019c0 .56-.374.894-.896 1.015l1.074 1.39h-.636l-.999-1.306h-.887v1.306h-.513zm1.504 1.697c.486 0 .822-.224.822-.622v-.019c0-.363-.3-.596-.794-.596h-1.018v1.23l.99.007zM5.261 40A5.26 5.26 0 0 1 0 34.748V5.252A5.261 5.261 0 0 1 5.26 0h31.726v40H5.26zm0-39.18A4.442 4.442 0 0 0 .82 5.252v29.496a4.441 4.441 0 0 0 4.44 4.432h30.903V.82H5.26z"/></g></svg>