<svg xmlns="http://www.w3.org/2000/svg" width="80.175" height="91.15"><path fill="#8fd299" d="M0 91v-7h2.71c.713 0 1.283.15 1.71.448s.64.74.64 1.327c0 .213-.043.41-.13.59s-.204.34-.352.478-.315.249-.498.332c.377.133.68.355.912.665s.348.678.348 1.105c0 .417-.104.778-.313 1.085s-.504.545-.887.715S3.302 91 2.775 91zm1.66-1.225h.875c.36 0 .63-.073.81-.22s.27-.367.27-.66c0-.28-.086-.497-.258-.652s-.427-.233-.767-.233h-.93zm0-2.905h.825c.2 0 .372-.033.517-.1s.257-.163.336-.29.117-.278.117-.455c0-.257-.086-.455-.258-.595s-.417-.21-.737-.21h-.8zM6.18 91v-7h4.92v1.44H7.84v1.3h2.735v1.33H7.84v1.475h3.3V91zm8.79-7c.52 0 .974.084 1.362.253s.689.412.9.732.318.703.318 1.15c0 .343-.065.646-.195.907s-.308.48-.535.653-.483.303-.77.39l1.806 2.791L20.425 84h1.925l2.64 7h-1.87l-.495-1.42h-2.51L19.63 91h-3.665l-1.56-2.575h-.615V91h-1.66v-7zm14.795 0v1.515H27.9V91h-1.67v-5.485h-1.865V84zm-8.405 1.775-.87 2.42h1.75zm-6.555-.41H13.79v1.73h.98c.347 0 .618-.068.813-.205s.292-.353.292-.65c0-.3-.092-.52-.278-.662s-.449-.213-.792-.213zM33.34 91.15c-.657 0-1.208-.13-1.653-.39s-.78-.618-1.007-1.073-.34-.977-.34-1.567V84H32v4.18c0 .477.118.83.355 1.063s.565.347.985.347c.417 0 .742-.116.977-.347s.353-.586.353-1.063V84h1.665v4.12c0 .587-.113 1.107-.34 1.563s-.563.813-1.008 1.074-.994.393-1.647.393zm4.205-.15v-7h1.64l2.88 4.29V84h1.61v7h-1.64l-2.885-4.35V91zm10.89.15c-.54 0-1.048-.083-1.525-.25s-.896-.407-1.257-.723-.646-.697-.853-1.147-.31-.958-.31-1.525c0-.563.1-1.07.297-1.517s.475-.833.828-1.153.763-.564 1.23-.732.968-.253 1.505-.253c.247 0 .505.02.775.058s.545.105.825.202.555.233.825.41l-.69 1.285c-.24-.157-.495-.273-.765-.347s-.557-.113-.86-.113c-.35 0-.665.05-.945.15s-.517.244-.712.433-.345.415-.448.682-.155.568-.155.905c0 .483.103.888.31 1.213s.487.57.84.735.748.247 1.185.247c.173 0 .338-.015.495-.045s.295-.065.415-.105v-1.24h-1.43V87H50.9v3.57c-.21.12-.46.223-.747.31s-.584.153-.885.2-.58.07-.833.07zM30.176 0 .175 80h49.999L80.175 0z"/></svg>