<svg xmlns="http://www.w3.org/2000/svg" xmlns:xlink="http://www.w3.org/1999/xlink" width="256px" height="94px" viewBox="0 0 256 94"><title>BPTW-logo-ENG</title><g id="Consulting" stroke="none" stroke-width="1" fill="none" fill-rule="evenodd"><g id="Get-to-Know-Our-People-" transform="translate(-1029.000000, -1397.000000)" fill-rule="nonzero"><g id="Scale" transform="translate(-6.000000, 993.000000)"><g id="Group-2" transform="translate(960.000000, 372.000000)"><g id="BPTW-logo-ENG" transform="translate(75.000000, 32.000000)"><path d="M8.45368,41.692601 C10.25556,41.9896951 10.87412,43.3749312 10.87412,44.9758713 L10.87412,48.3762151 C10.87412,50.9758884 8.86604,52.4601559 5.7464,52.4601559 L0.4125,52.4601559 L0.4125,31.7440796 L5.80916,31.7440796 C8.93776,31.7440796 10.76652,33.219326 10.76652,35.8279402 L10.76652,38.4275333 C10.76652,39.9027396 10.12108,41.4768971 8.46264,41.6837804 L8.45368,41.692601 Z M3.827984,40.2985443 L5.7464,40.2985443 C6.72352,40.2985443 7.34208,39.7948074 7.34208,38.6974037 L7.34208,36.3046539 C7.34208,35.2072501 6.72352,34.7035133 5.7464,34.7035133 L3.827984,34.7035133 L3.827984,40.2985443 Z M5.86292,43.1949107 L3.827984,43.1949107 L3.827984,49.5008424 L5.86292,49.5008424 C6.84008,49.5008424 7.4586,48.996865 7.4586,47.8995014 L7.4586,44.7962517 C7.4586,43.698888 6.84008,43.1949107 5.86292,43.1949107 Z" id="Shape" fill="#000000"></path><polygon id="Path" fill="#000000" points="13.40204 52.4601559 13.40204 31.7440796 22.45624 31.7440796 22.45624 34.7665005 16.82648 34.7665005 16.82648 40.4513011 21.54184 40.4513011 21.54184 43.4739626 16.82648 43.4739626 16.82648 49.4555366 22.54588 49.4555366 22.54588 52.478198 13.40204 52.478198"></polygon><path d="M31.21456,39.1471344 L31.21456,36.2506878 C31.21456,34.9463606 30.47944,34.4786279 29.47544,34.4786279 C28.4714,34.4786279 27.73632,34.9553817 27.73632,36.2506878 L27.73632,37.671928 C27.73632,38.7333677 28.08592,39.2100814 29.06304,39.7768054 L31.48348,41.1348981 C33.45568,42.2595254 34.639,43.1768685 34.639,45.3988595 L34.639,48.3850357 C34.639,51.5784961 32.6668,52.7027225 29.53816,52.7027225 L29.47544,52.7027225 C26.3468,52.7027225 24.3746,51.6053589 24.3746,48.3850357 L24.3746,44.7782095 L27.73632,44.7782095 L27.73632,47.9175435 C27.73632,49.1857062 28.4714,49.7526306 29.50232,49.7526306 C30.53324,49.7526306 31.26832,49.1857062 31.26832,47.9175435 L31.26832,46.2893398 C31.26832,45.2280604 30.9456,44.6879988 29.91468,44.1302959 L27.53012,42.7723234 C25.52208,41.6208334 24.3746,40.667406 24.3746,38.5084824 L24.3746,35.782915 C24.3746,32.7065681 26.61576,31.5191942 29.44852,31.5191942 L29.51128,31.5191942 C32.34408,31.5191942 34.5852,32.7065681 34.5852,35.782915 L34.5852,39.1561154 L31.22352,39.1561154 L31.21456,39.1471344 Z" id="Path" fill="#000000"></path><polygon id="Path" fill="#000000" points="46.1404 34.7665005 42.6892 34.7665005 42.6892 52.4601559 39.26464 52.4601559 39.26464 34.7665005 35.81328 34.7665005 35.81328 31.7440796 46.1316 31.7440796 46.1316 34.7665005"></polygon><path d="M62.8592,36.1247536 L62.8592,40.0646779 C62.8592,43.2041322 60.7976,44.4454321 57.6688,44.4454321 L55.7504,44.4454321 L55.7504,52.4689765 L52.326,52.4689765 L52.326,31.7531006 L57.66,31.7531006 C60.7884,31.7531006 62.8504,32.9944406 62.8504,36.1337746 L62.8592,36.1247536 Z M59.4348,36.6554734 C59.4348,35.1802671 58.6728,34.7575195 57.5436,34.7575195 L55.7416,34.7575195 L55.7416,41.41395 L57.5436,41.41395 C58.664,41.41395 59.4348,41.0001834 59.4348,39.515956 L59.4348,36.6464924 L59.4348,36.6554734 Z" id="Shape" fill="#000000"></path><polygon id="Path" fill="#000000" points="73.7424 52.4601559 65.0468 52.4601559 65.0468 31.7440796 68.4712 31.7440796 68.4712 49.3837689 73.7512 49.3837689 73.7512 52.4601559"></polygon><path d="M82.142,47.8453749 L78.368,47.8453749 L77.6328,52.4601559 L74.334,52.4601559 L78.1708,31.7440796 L82.4736,31.7440796 L86.3644,52.4601559 L82.886,52.4601559 L82.1508,47.8453749 L82.142,47.8453749 Z M81.7028,45.003135 L80.2596,35.800917 L78.816,45.003135 L81.7028,45.003135 Z" id="Shape" fill="#000000"></path><path d="M98.2156,48.3220886 C98.2156,51.5155491 96.1536,52.7031235 93.0248,52.7031235 L92.9624,52.7031235 C89.8336,52.7031235 87.7716,51.5516334 87.7716,48.3220886 L87.7716,35.8908872 C87.7716,32.8145404 89.8336,31.5102132 92.9624,31.5102132 L93.0248,31.5102132 C96.1536,31.5102132 98.2156,32.8145404 98.2156,35.8908872 L98.2156,39.6778542 L94.7912,39.6778542 L94.7912,36.4216071 C94.7912,34.9733838 94.0828,34.523613 92.9892,34.523613 C91.8956,34.523613 91.1872,34.9643627 91.1872,36.4216071 L91.1872,47.7824279 C91.1872,49.2306111 91.8956,49.680462 92.9892,49.680462 C94.0828,49.680462 94.7912,49.2398326 94.7912,47.7824279 L94.7912,44.0224439 L98.2156,44.0224439 L98.2156,48.313268 L98.2156,48.3220886 Z" id="Path" fill="#000000"></path><polygon id="Path" fill="#000000" points="100.9316 52.4601559 100.9316 31.7440796 109.986 31.7440796 109.986 34.7665005 104.356 34.7665005 104.356 40.4513011 109.0716 40.4513011 109.0716 43.4739626 104.356 43.4739626 104.356 49.4555366 110.0756 49.4555366 110.0756 52.478198 100.9316 52.478198"></polygon><path d="M118.7352,39.1471344 L118.7352,36.2506878 C118.7352,34.9463606 118,34.4786279 116.996,34.4786279 C115.992,34.4786279 115.2572,34.9553817 115.2572,36.2506878 L115.2572,37.671928 C115.2572,38.7333677 115.6068,39.2100814 116.5836,39.7768054 L119.004,41.1348981 C120.9764,42.2595254 122.1596,43.1768685 122.1596,45.3988595 L122.1596,48.3850357 C122.1596,51.5784961 120.1876,52.7027225 117.0588,52.7027225 L116.996,52.7027225 C113.8676,52.7027225 111.8952,51.6053589 111.8952,48.3850357 L111.8952,44.7782095 L115.2572,44.7782095 L115.2572,47.9175435 C115.2572,49.1857062 115.992,49.7526306 117.0232,49.7526306 C118.054,49.7526306 118.7892,49.1857062 118.7892,47.9175435 L118.7892,46.2893398 C118.7892,45.2280604 118.4664,44.6879988 117.4352,44.1302959 L115.0508,42.7723234 C113.0428,41.6208334 111.8952,40.667406 111.8952,38.5084824 L111.8952,35.782915 C111.8952,32.7065681 114.1364,31.5191942 116.9692,31.5191942 L117.032,31.5191942 C119.8648,31.5191942 122.106,32.7065681 122.106,35.782915 L122.106,39.1561154 L118.7444,39.1561154 L118.7352,39.1471344 Z" id="Path" fill="#000000"></path><polygon id="Path" fill="#000000" points="52.3708 92.9836256 47.0728 92.9836256 42.698 69.586967 38.3234 92.9836256 32.83708 92.9836256 27.49424 58.8554965 33.03432 58.8554965 35.84916 83.2328461 40.224 58.8554965 45.28 58.8554965 49.6544 83.2328461 52.4696 58.8554965 57.7136 58.8554965"></polygon><path d="M68.6952,58.4689935 L69.0808,58.4689935 C74.2264,58.4689935 77.6328,60.5197845 77.6328,65.6830468 L77.6328,86.1560753 C77.6328,91.3193375 74.2352,93.3701285 69.0808,93.3701285 L68.6952,93.3701285 C63.5496,93.3701285 60.1432,91.3193375 60.1432,86.1560753 L60.1432,65.6830468 C60.1432,60.4656581 63.5408,58.4689935 68.6952,58.4689935 Z M68.8924,88.404929 C70.7392,88.404929 72.0032,87.721332 72.0032,85.2836371 L72.0032,66.5647065 C72.0032,64.1270116 70.7392,63.4434146 68.8924,63.4434146 C67.0456,63.4434146 65.7816,64.1270116 65.7816,66.5647065 L65.7816,85.2836371 C65.7816,87.721332 67.0456,88.404929 68.8924,88.404929 Z" id="Shape" fill="#000000"></path><path d="M95.078,92.9836256 L90.7568,79.3826514 L87.942,79.3826514 L87.942,92.9836256 L82.3036,92.9836256 L82.3036,58.8554965 L91.0976,58.8554965 C96.2432,58.8554965 99.6496,60.9066884 99.6496,66.0699507 L99.6496,72.1597775 C99.6496,75.4250057 98.2872,77.4757966 95.9564,78.5013926 L100.8152,92.9836256 L95.078,92.9836256 L95.078,92.9836256 Z M87.9332,74.5072616 L90.9004,74.5072616 C92.7472,74.5072616 94.0112,73.8236646 94.0112,71.3859698 L94.0112,66.9512094 C94.0112,64.5135146 92.7472,63.8299176 90.9004,63.8299176 L87.9332,63.8299176 L87.9332,74.5072616 Z" id="Shape" fill="#000000"></path><polygon id="Path" fill="#000000" points="117.032 92.9836256 112.3704 78.1593936 109.8424 83.1338147 109.8424 92.9836256 104.2036 92.9836256 104.2036 58.8554965 109.8424 58.8554965 109.8424 74.2105685 116.252 58.8554965 122.1776 58.8554965 115.6692 71.6738423 122.7604 92.974404 117.0228 92.974404"></polygon><polygon id="Path" fill="#000000" points="9.98648 70.1446699 7.27024 70.1446699 7.27024 84.0872421 4.57192 84.0872421 4.57192 70.1446699 1.855664 70.1446699 1.855664 67.7699221 9.98648 67.7699221"></polygon><path d="M15.37424,67.5810809 L15.56252,67.5810809 C18.02776,67.5810809 19.65032,68.561371 19.65032,71.0351502 L19.65032,80.822014 C19.65032,83.2957932 18.02776,84.2760833 15.56252,84.2760833 L15.37424,84.2760833 C12.909,84.2760833 11.28644,83.2957932 11.28644,80.822014 L11.28644,71.0351502 C11.28644,68.5433289 12.909,67.5810809 15.37424,67.5810809 Z M15.46388,81.8925149 C16.3424,81.8925149 16.952,81.568558 16.952,80.3990258 L16.952,71.4489168 C16.952,70.2793846 16.3514,69.9558287 15.46388,69.9558287 C14.5764,69.9558287 13.9758,70.2793846 13.9758,71.4489168 L13.9758,80.3990258 C13.9758,81.568558 14.5764,81.8925149 15.46388,81.8925149 Z" id="Shape" fill="#000000"></path><polygon id="Path" fill="#000000" points="21.92724 58.864718 0.403416 58.864718 0.403416 61.2302443 21.92724 61.2302443"></polygon><polygon id="Path" fill="#000000" points="21.92724 90.6176984 0.403416 90.6176984 0.403416 92.9836256 21.92724 92.9836256"></polygon><path d="M13.63504,5.32516048 L10.73052,5.32516048 C10.56916,5.32516048 10.43472,5.46007567 10.43472,5.62201398 L10.43472,7.17816943 C9.6996,5.98181454 8.14876,5.00132394 6.1138,5.00132394 C2.823824,5.00132394 0,7.48400391 0,11.9276651 C0,16.3712861 2.68936,18.773017 6.2214,18.773017 C8.12188,18.773017 9.61892,17.9814076 10.48848,16.7310867 L10.48848,17.576622 C10.48848,19.4836371 9.56516,21.0128095 6.60684,21.0128095 C5.10976,21.0128095 3.9175,20.5180938 2.859684,19.5645862 C2.725216,19.4566541 2.510068,19.4836371 2.429384,19.6185523 L1.129532,21.8223808 C0.968168,22.0922513 0.99506,22.2541495 1.102636,22.3711027 C2.465244,23.5404746 4.22228,24.2780777 6.7772,24.2780777 C12.34416,24.2780777 13.97568,21.1747077 13.97568,17.7385603 L13.97568,5.61299291 C13.9488,5.45109469 13.81432,5.34316254 13.65296,5.34316254 L13.63504,5.32516048 Z M7.06404,15.5167297 C5.08288,15.5167297 3.585812,14.0954895 3.585812,11.945627 C3.585812,9.79580467 5.08288,8.37452431 7.06404,8.37452431 C9.0452,8.37452431 10.5154,9.7417985 10.5154,11.945627 C10.5154,14.1494555 9.0452,15.5167297 7.06404,15.5167297 Z M20.34948,0.305837288 L20.34948,18.3232462 C20.34948,18.4851444 20.215,18.6200997 20.05364,18.6200997 L17.12224,18.6200997 C16.96088,18.6200997 16.8264,18.4851444 16.8264,18.3232462 L16.8264,0.305837288 C16.8264,0.14392343 16.96088,0.00899541482 17.12224,0.00899541482 L20.05364,0.00899541482 C20.215,0.00899541482 20.34948,0.14392343 20.34948,0.305837288 L20.34948,0.305837288 Z M28.99128,5.019326 C26.22124,5.019326 24.13252,5.94585052 23.18228,7.79885946 C23.12848,7.93377465 23.15536,8.09567287 23.28984,8.17666207 L25.40548,9.70583448 C25.53992,9.81376663 25.7282,9.75980056 25.80888,9.62488537 C26.40948,8.56344567 27.70936,8.20364511 28.99128,8.20364511 C30.56904,8.20364511 31.30412,8.75232693 31.30412,9.53491518 L31.30412,9.75081957 C31.30412,10.0746561 31.11588,10.2455353 30.62284,10.2995014 L26.98324,10.6233379 C24.53592,10.8662254 22.743,12.3684147 22.743,14.7971286 C22.743,17.2258425 24.58968,18.9438962 27.22528,18.9438962 C29.28712,18.9438962 30.6228,17.9364626 31.30412,16.8750229 L31.30412,18.3772123 C31.30412,18.5391105 31.4386,18.6740658 31.59996,18.6740658 L34.50448,18.6740658 C34.66584,18.6740658 34.80028,18.5391105 34.80028,18.3772123 L34.80028,10.4434376 C34.80028,6.73741976 32.84604,5.019326 28.99128,5.019326 L28.99128,5.019326 Z M31.30412,13.2499541 C31.30412,14.7251605 30.11184,15.9754814 28.26516,15.9754814 C27.04596,15.9754814 26.39156,15.4267996 26.39156,14.5542412 C26.39156,13.816638 26.96528,13.2499541 28.02312,13.0790349 L31.31308,12.6742492 L31.31308,13.2499541 L31.30412,13.2499541 Z M48.74,14.5812242 C48.74,17.6036451 46.544,18.9169131 43.0116,18.9169131 C40.5644,18.9169131 38.47576,18.2602591 37.28348,16.902006 C37.2028,16.7940738 37.2028,16.6321355 37.28348,16.5242034 L38.9688,14.3473579 C39.07636,14.2124427 39.29152,14.2124427 39.39908,14.3203748 C40.2956,15.2199163 41.658,15.7955812 43.3616,15.7955812 C44.3384,15.7955812 45.1276,15.5257508 45.1276,14.7881075 C45.1276,14.0505044 44.4192,13.9155892 42.196,13.4208734 C40.2416,13.0160878 37.79444,12.1165463 37.79444,9.22009972 C37.79444,6.52151537 39.91008,4.99234296 43.3884,4.99234296 C45.6744,4.99234296 47.2968,5.67598006 48.4712,6.7644028 C48.5788,6.87233494 48.5788,7.03427326 48.498,7.16918844 L46.8936,9.23810178 C46.786,9.37301696 46.5976,9.4 46.49,9.29206785 C45.7012,8.58144772 44.4012,8.14967904 43.1192,8.14967904 C42.0348,8.14967904 41.434,8.50045852 41.434,9.07616346 C41.434,9.73281752 42.1424,9.89471574 44.5,10.4074736 C46.786,10.9291724 48.74,11.8017309 48.74,14.5812242 L48.74,14.5812242 Z M62.1868,14.5812242 C62.1868,17.6036451 59.9908,18.9169131 56.4584,18.9169131 C54.0112,18.9169131 51.9224,18.2602591 50.7304,16.902006 C50.6496,16.7940738 50.6496,16.6321355 50.7304,16.5242034 L52.4156,14.3473579 C52.5232,14.2124427 52.7384,14.2124427 52.846,14.3203748 C53.7424,15.2199163 55.1048,15.7955812 56.8084,15.7955812 C57.7852,15.7955812 58.5744,15.5257508 58.5744,14.7881075 C58.5744,14.0505044 57.866,13.9155892 55.6428,13.4208734 C53.6884,13.0160878 51.2412,12.1165463 51.2412,9.22009972 C51.2412,6.52151537 53.3568,4.99234296 56.8352,4.99234296 C59.1212,4.99234296 60.7436,5.67598006 61.918,6.7644028 C62.0256,6.87233494 62.0256,7.03427326 61.9448,7.16918844 L60.3404,9.23810178 C60.2328,9.37301696 60.0444,9.4 59.9368,9.29206785 C59.148,8.58144772 57.848,8.14967904 56.566,8.14967904 C55.4816,8.14967904 54.8808,8.50045852 54.8808,9.07616346 C54.8808,9.73281752 55.5892,9.89471574 57.9468,10.4074736 C60.2328,10.9291724 62.1868,11.8017309 62.1868,14.5812242 L62.1868,14.5812242 Z M77.7492,0 L74.8448,0 C74.6836,0 74.5492,0.134928015 74.5492,0.296841873 L74.5492,7.22315452 C73.6524,5.94585052 72.1556,4.95637894 70.0936,4.95637894 C66.8576,4.95637894 64.1144,7.46604194 64.1144,11.9636291 C64.1144,16.4612162 66.8576,18.9438962 70.1476,18.9438962 C72.0748,18.9438962 73.5988,18.0983609 74.5492,16.7400676 L74.5492,18.2962632 C74.5492,18.4581614 74.6836,18.5931167 74.8448,18.5931167 L77.7492,18.5931167 C77.9108,18.5931167 78.0452,18.4581614 78.0452,18.2962632 L78.0452,0.278851044 C78.0452,0.143923029 77.9108,0.00899541482 77.7492,0.00899541482 L77.7492,0 Z M71.1784,15.5347318 C69.1972,15.5347318 67.7,14.1134915 67.7,11.9636291 C67.7,9.81376663 69.1972,8.39252637 71.1784,8.39252637 C73.1596,8.39252637 74.6564,9.75980056 74.6564,11.9636291 C74.6564,14.1404746 73.1324,15.5347318 71.1784,15.5347318 Z M87.3412,4.98336198 C83.2624,4.98336198 80.2236,7.78983839 80.2236,11.9636291 C80.2236,16.1374198 83.2624,18.9438962 87.3412,18.9438962 C91.4204,18.9438962 94.4592,16.1374198 94.4592,11.9636291 C94.4592,7.78983839 91.4204,4.98336198 87.3412,4.98336198 L87.3412,4.98336198 Z M87.3412,15.4807657 C85.3604,15.4807657 83.8092,14.0595254 83.8092,11.936646 C83.8092,9.81376663 85.3604,8.39252637 87.3412,8.39252637 C89.3224,8.39252637 90.8732,9.81376663 90.8732,11.936646 C90.8464,14.0865085 89.3224,15.4807657 87.3412,15.4807657 Z M103.5044,4.98336198 C99.4256,4.98336198 96.3864,7.78983839 96.3864,11.9636291 C96.3864,16.1374198 99.4256,18.9438962 103.5044,18.9438962 C107.5832,18.9438962 110.6224,16.1374198 110.6224,11.9636291 C110.6492,7.81682143 107.61,4.98336198 103.5044,4.98336198 Z M103.5044,15.4807657 C101.5232,15.4807657 99.9724,14.0595254 99.9724,11.936646 C99.9724,9.81376663 101.5232,8.39252637 103.5044,8.39252637 C105.4856,8.39252637 107.0364,9.81376663 107.0364,11.936646 C107.0364,14.0595254 105.5124,15.4807657 103.5044,15.4807657 Z M122.1148,5.61299291 C122.1148,5.47807772 122.0072,5.34316254 121.8996,5.28919646 C121.6308,5.15424118 121.2184,5.04630904 120.4024,5.04630904 C118.556,5.04630904 116.8976,5.97283356 116.1892,7.50200596 L116.1892,5.62201398 C116.1892,5.46007567 116.0548,5.32516048 115.8932,5.32516048 L113.1232,5.32516048 C112.962,5.32516048 112.8276,5.46007567 112.8276,5.62201398 L112.8276,18.3232462 C112.8276,18.4851444 112.962,18.6200997 113.1232,18.6200997 L116.028,18.6200997 C116.1892,18.6200997 116.3236,18.4851444 116.3236,18.3232462 L116.3236,12.6022811 C116.3236,10.038652 118.0896,8.78833104 120.4024,8.78833104 C120.9492,8.78833104 121.4872,8.89626319 121.7292,9.00419533 C121.9176,9.05816141 122.106,8.92324622 122.106,8.73436496 L122.106,5.63099496 L122.1148,5.61299291 Z" id="Shape" fill="#0CAA41"></path><path d="M124.7864,3.98486933 C124.9208,3.98486933 125.0284,4.01185237 125.1088,4.06581844 C125.1896,4.11978452 125.2164,4.20077372 125.2164,4.33568891 C125.2164,4.44362106 125.1896,4.52457017 125.136,4.57853624 C125.082,4.63254241 125.0012,4.65952544 124.9208,4.65952544 L125.2704,5.20820726 L125.082,5.20820726 L124.7592,4.68650848 L124.5712,4.68650848 L124.5712,5.20820726 L124.3828,5.20820726 L124.3828,4.01185237 L124.7864,4.01185237 L124.7864,3.98486933 L124.7864,3.98486933 Z M124.7056,4.53359124 L124.8132,4.53359124 C124.8132,4.53359124 124.8936,4.53359124 124.9208,4.5066082 C124.9476,4.5066082 124.9744,4.47962517 125.0012,4.45260204 C125.0284,4.425619 125.0284,4.39863596 125.0284,4.34466989 C125.0284,4.31768685 125.0284,4.26372078 125.0012,4.23673774 C124.9744,4.2097547 124.9744,4.18277167 124.9476,4.18277167 C124.9208,4.18277167 124.8936,4.15578863 124.8668,4.15578863 L124.5172,4.15578863 L124.5172,4.53359124 L124.7056,4.53359124 L124.7056,4.53359124 Z" id="Shape" fill="#0CAA41"></path><path d="M124.7056,3.71501892 C125.1988,3.71501892 125.602,4.11978452 125.602,4.61454035 C125.602,5.10929619 125.1988,5.51404174 124.7056,5.51404174 C124.2124,5.51404174 123.8092,5.10929619 123.8092,4.61454035 C123.8092,4.11978452 124.2124,3.71501892 124.7056,3.71501892 Z M124.7056,3.52612162 C124.1048,3.52612162 123.6208,4.02087344 123.6208,4.61454035 C123.6208,5.20820726 124.114,5.70296309 124.7056,5.70296309 C125.2972,5.70296309 125.7904,5.20820726 125.7904,4.61454035 C125.7904,4.02087344 125.2972,3.52612162 124.7056,3.52612162 Z" id="Shape" fill="#0CAA41"></path><path d="M256,33.4351903 L256,22.6319521 C256,9.06718248 248.2368,4.03883541 235.4624,4.03883541 L234.5836,4.03883541 C222.4008,4.03883541 213.6516,8.15866002 213.804,22.6409331 L213.804,32.598636 L227.8244,32.598636 L227.8244,24.1431224 C227.8244,17.9904287 230.9532,16.1014156 234.3328,16.1014156 L235.4624,16.1014156 C238.842,16.1014156 241.9704,17.9904287 241.9704,24.1431224 L241.9704,33.5701055 C241.9704,39.4709709 239.2184,41.6120127 234.7092,41.6120127 L230.6392,41.6120127 L230.6392,53.4224038 L235.9644,53.4224038 C239.344,53.4224038 241.9704,55.554585 241.9704,60.2050492 L241.9704,73.8958332 C241.9704,80.0482062 238.842,81.9374198 235.4624,81.9374198 L234.5836,81.9374198 C231.204,81.9374198 228.0756,80.0482062 228.0756,73.8958332 L228.0756,63.5961715 L214.0548,63.5961715 L214.0548,75.4069635 C214.0548,87.721332 220.5632,94 233.3376,94 L236.7172,94 C249.4916,94 256,87.721332 256,75.4069635 L256,59.953261 C256,55.1765017 255.1216,48.7719396 247.4836,47.2608093 C254.7448,46.1273614 256,38.9672341 256,33.4441713 L256,33.4351903 Z" id="Path" fill="#00A1DF"></path><path d="M212.298,56.301129 C220.5632,48.2591416 227.8244,43.4827832 227.8244,32.4277167 L227.8244,22.1282153 C227.8244,9.06718248 220.5632,4.03883541 207.2868,4.03883541 L207.0356,4.03883541 C193.7684,4.03883541 186.256,9.06718248 186.256,22.1282153 L186.256,32.598636 L200.2764,32.598636 L200.2764,23.6304046 C200.2764,17.603605 202.9032,16.0924347 206.9104,16.0924347 C210.9172,16.0924347 213.7948,17.603605 213.7948,23.6304046 L213.7948,32.1758483 C213.7948,36.8263927 210.792,39.4619899 204.158,45.8667525 C195.3908,54.2860214 186.256,61.4463491 186.256,72.6272697 L186.256,92.9836256 L227.8244,92.9836256 L227.8244,80.9210453 L200.2764,80.9210453 L200.2764,72.8790579 C200.2764,68.1026995 205.0368,63.3351617 212.298,56.2919075 L212.298,56.301129 Z" id="Path" fill="#6ECB88"></path><path d="M200.2856,22.6319521 L200.2856,75.397742 C200.2856,88.7108436 192.3968,93.9907785 179.2548,93.9907785 L178.2508,93.9907785 C165.1088,93.9907785 157.22,88.7108436 157.22,75.397742 L157.22,22.6319521 C157.22,9.3190108 165.1088,4.03883541 178.2508,4.03883541 L179.2548,4.03883541 C192.3968,4.03883541 200.2856,9.3190108 200.2856,22.6319521 Z M178.7528,16.8570209 C174.118,16.8570209 171.2404,18.6200596 171.2404,24.8987277 L171.2404,73.1400676 C171.2404,79.4187357 174.118,81.1816542 178.7528,81.1816542 C183.3872,81.1816542 186.2648,79.4187357 186.2648,73.1400676 L186.2648,24.8987277 C186.2648,18.6200596 183.3872,16.8570209 178.7528,16.8570209 L178.7528,16.8570209 Z" id="Shape" fill="#00A1DF"></path><path d="M155.714,56.301129 C163.9792,48.2591416 171.2404,43.4827832 171.2404,32.4277167 L171.2404,22.1282153 C171.2404,9.06718248 163.9792,4.03883541 150.7028,4.03883541 L150.4516,4.03883541 C137.184,4.03883541 129.672,9.06718248 129.672,22.1282153 L129.672,32.598636 L143.6924,32.598636 L143.6924,23.6304046 C143.6924,17.603605 146.3188,16.0924347 150.326,16.0924347 C154.3332,16.0924347 157.2108,17.603605 157.2108,23.6304046 L157.2108,32.1758483 C157.2108,36.8263927 154.2076,39.4619899 147.574,45.8667525 C138.8068,54.2860214 129.672,61.4463491 129.672,72.6272697 L129.672,92.9836256 L171.2404,92.9836256 L171.2404,80.9210453 L143.6924,80.9210453 L143.6924,72.8790579 C143.6924,68.1026995 148.4524,63.3351617 155.714,56.2919075 L155.714,56.301129 Z" id="Path" fill="#6ECB88"></path><path d="M171.2404,80.9210453 L157.7576,80.9210453 C159.1652,87.4964065 163.28,91.3193375 169.5192,92.9836256 L171.2404,92.9836256 L171.2404,80.9210453 Z" id="Path" fill="#007549"></path><path d="M157.2108,22.6319521 L157.2108,54.8617664 C164.8308,47.6565338 171.2316,42.8084077 171.2316,32.4367377 L171.2316,22.1371963 C171.2316,14.7521435 168.9096,9.93071985 164.49,7.14220541 C159.8016,10.011669 157.202,15.0040119 157.202,22.6409331 L157.2108,22.6319521 Z" id="Path" fill="#007549"></path><path d="M200.2856,75.8295507 L200.2856,72.8882794 C200.2856,72.8253324 200.2856,72.7531638 200.2856,72.6902167 L200.2856,49.5457473 C192.8988,56.4987908 186.256,63.1102363 186.256,72.6364912 L186.256,92.9924462 L187.9772,92.9924462 C195.6956,90.9324336 200.1508,85.5895518 200.2764,75.8387723 L200.2856,75.8295507 Z" id="Path" fill="#007549"></path><path d="M186.2648,22.1282153 L186.2648,32.598636 L200.2856,32.598636 L200.2856,23.6304046 C200.2856,23.5134915 200.2856,23.4055193 200.2856,23.2975871 L200.2856,22.6319521 C200.2856,15.0399759 197.7216,10.0566541 193.078,7.17816943 C188.6404,9.97566485 186.2648,14.7791266 186.2648,22.1282153 Z" id="Path" fill="#007549"></path><path d="M213.804,22.1282153 L213.804,32.598636 L227.8244,32.598636 C227.8244,32.598636 227.8244,32.5266678 227.8244,32.4907038 L227.8244,23.6304046 C227.8244,23.6304046 227.8244,23.5944406 227.8244,23.5854196 L227.8244,22.1282153 C227.8244,14.6351903 225.4308,9.78678359 220.886,7.00725013 C216.2692,9.77780261 213.804,14.6262093 213.804,22.1282153 L213.804,22.1282153 Z" id="Path" fill="#007549"></path><path d="M227.8244,80.9210453 L214.5748,80.9210453 C215.8568,87.1904918 219.5144,91.2295277 225.4848,92.9836256 L227.8244,92.9836256 L227.8244,80.9210453 L227.8244,80.9210453 Z" id="Path" fill="#007549"></path></g></g></g></g></g></svg>