<svg xmlns="http://www.w3.org/2000/svg" xmlns:xlink="http://www.w3.org/1999/xlink" width="250px" height="49px" viewBox="0 0 250 49"><title>logo</title><g id="Page-1" stroke="none" stroke-width="1" fill="none" fill-rule="evenodd"><g id="Landingpage" transform="translate(-273.000000, -344.000000)"><g id="logo" transform="translate(273.000000, 344.632321)"><polygon id="Fill-1" fill="#8FD299" points="228.601743 0 215.761966 34.4054967 237.160224 34.4054967 250 0"></polygon><g id="Beratung-Copy-2" transform="translate(0.000000, 3.933840)" fill="#000000" fill-rule="nonzero"><path d="M0,33.3473647 L0,0 L11.8612118,0 C15.0968052,0 17.7050091,0.710616462 19.6858236,2.13184939 C21.6666381,3.55308231 22.6570453,5.6531723 22.6570453,8.43211936 C22.6570453,9.46429969 22.4202946,10.4409011 21.9467931,11.3619235 C21.4732917,12.282946 20.8577398,13.0888406 20.1001374,13.7796075 C19.3425351,14.4703743 18.5375826,14.9983743 17.6852799,15.3636073 C19.4845855,15.9352764 20.9682234,16.9595169 22.1361937,18.4363288 C23.304164,19.9131406 23.8881492,21.7154863 23.8881492,23.8433658 C23.8881492,25.7171701 23.4185935,27.3686586 22.4794823,28.7978314 C21.540371,30.2270041 20.2027294,31.3425529 18.4665573,32.1444776 C16.7303853,32.9464023 14.6785456,33.3473647 12.3110382,33.3473647 L0,33.3473647 Z M6.15551911,28.607275 L11.3403602,28.607275 C13.4079833,28.607275 14.9547548,28.1904329 15.9806746,27.3567488 C17.0065945,26.5230647 17.5195544,25.2725385 17.5195544,23.6051703 C17.5195544,21.9695615 17.0105403,20.7150654 15.9925122,19.841682 C14.974484,18.9682986 13.4316584,18.531607 11.3640353,18.531607 L6.15551911,18.531607 L6.15551911,28.607275 Z M6.15551911,14.0535323 L10.961559,14.0535323 C12.1137459,14.0535323 13.1159907,13.8629759 13.9682934,13.4818632 C14.820596,13.1007504 15.4834981,12.5489309 15.9569995,11.8264047 C16.430501,11.1038785 16.6672517,10.2424049 16.6672517,9.24198393 C16.6672517,7.78105176 16.1661294,6.66550301 15.1638846,5.89533769 C14.1616398,5.12517236 12.7292979,4.7400897 10.8668587,4.7400897 L6.15551911,4.7400897 L6.15551911,14.0535323 Z" id="Shape"></path><path d="M40.6501012,34.0619511 C38.0774099,34.0619511 35.8203862,33.5339511 33.8790302,32.4779513 C31.9376742,31.4219514 30.4264153,29.9491094 29.3452536,28.0594254 C28.2640919,26.1697414 27.7235111,23.9704033 27.7235111,21.4614111 C27.7235111,19.6193662 28.0352329,17.9281784 28.6586765,16.3878478 C29.2821201,14.8475171 30.1659895,13.5096526 31.3102847,12.3742543 C32.4545799,11.2388559 33.7961674,10.3615026 35.3350472,9.7421944 C36.873927,9.1228862 38.558803,8.8132321 40.3896754,8.8132321 C42.3783816,8.8132321 44.1540121,9.16655537 45.7165669,9.8732019 C47.2791218,10.5798484 48.577305,11.5723295 49.6111165,12.8506452 C50.6449281,14.1289608 51.3709637,15.6216524 51.7892233,17.3287199 C52.2074829,19.0357873 52.2587789,20.8976819 51.9431113,22.9144035 L33.4292038,22.9144035 C33.4134204,24.1688996 33.7093588,25.2645987 34.317019,26.2015008 C34.9246793,27.138403 35.7927653,27.872839 36.9212771,28.4048089 C38.049789,28.9367787 39.3795389,29.2027637 40.910527,29.2027637 C42.2678979,29.2027637 43.5700269,29.0042674 44.8169141,28.607275 C46.0638013,28.2102826 47.22388,27.6227338 48.2971499,26.8446286 L50.4279066,31.1083274 C49.6860876,31.7117559 48.7627597,32.2357859 47.657923,32.6804174 C46.5530862,33.1250489 45.3890618,33.4664624 44.1658496,33.7046579 C42.9426375,33.9428533 41.7707214,34.0619511 40.6501012,34.0619511 Z M33.7843299,18.579246 L46.071693,18.579246 C46.0243429,16.9753966 45.4955996,15.7169306 44.4854631,14.803848 C43.4753266,13.8907654 42.0627139,13.4342241 40.247625,13.4342241 C38.4483194,13.4342241 36.9646814,13.8907654 35.7967111,14.803848 C34.6287408,15.7169306 33.9579471,16.9753966 33.7843299,18.579246 Z" id="Shape"></path><path d="M57.1516274,33.3473647 L57.1516274,9.52781848 L63.2124463,9.52781848 L63.2124463,12.648179 C64.0331821,11.2507657 65.0630478,10.2582846 66.3020433,9.67073576 C67.5410389,9.08318695 68.8786805,8.78941255 70.3149683,8.78941255 C70.8200365,8.78941255 71.2856463,8.8132321 71.7117976,8.86087119 C72.137949,8.90851028 72.5483169,8.97996892 72.9429015,9.07524711 L72.1852991,15.3636073 C71.6960143,15.1889306 71.1870002,15.0579231 70.6582569,14.9705848 C70.1295136,14.8832465 69.6047161,14.8395773 69.0838645,14.8395773 C67.3792592,14.8395773 65.9745382,15.3516975 64.8697014,16.375938 C63.7648646,17.4001785 63.2124463,18.8333212 63.2124463,20.6753661 L63.2124463,33.3473647 L57.1516274,33.3473647 Z" id="Path"></path><path d="M83.6913848,34.0619511 C82.0814798,34.0619511 80.6530837,33.752297 79.4061965,33.1329888 C78.1593093,32.5136806 77.1807396,31.6363273 76.4704874,30.5009289 C75.7602352,29.3655306 75.4051091,28.0197262 75.4051091,26.4635158 C75.4051091,25.1296213 75.7365601,23.9386439 76.3994622,22.8905839 C77.0623643,21.8425239 78.0803924,20.9731104 79.4535467,20.2823436 C80.8267009,19.5915768 82.5826022,19.1270956 84.7212505,18.8889001 C86.8598988,18.6507047 89.3970776,18.6824641 92.3327867,18.9841783 L92.427487,23.0096816 C90.5019143,22.7079674 88.8209841,22.57299 87.3846963,22.6047494 C85.9484085,22.6365087 84.760709,22.8032456 83.8215977,23.1049598 C82.8824865,23.4066741 82.180126,23.8195462 81.7145162,24.3435762 C81.2489064,24.8676062 81.0161015,25.4789746 81.0161015,26.1776813 C81.0161015,27.2257413 81.3949027,28.031636 82.1525051,28.5953652 C82.9101074,29.1590945 83.943919,29.4409591 85.2539397,29.4409591 C86.3745598,29.4409591 87.3807505,29.234523 88.2725116,28.8216509 C89.1642727,28.4087788 89.870579,27.8251999 90.3914306,27.0709143 C90.9122823,26.3166286 91.1727081,25.4233957 91.1727081,24.3912153 L91.1727081,18.3648701 C91.1727081,17.3644492 90.9635783,16.4950358 90.5453186,15.7566298 C90.127059,15.0182239 89.4917778,14.4465548 88.6394752,14.0416225 C87.7871726,13.6366902 86.6902275,13.4342241 85.34864,13.4342241 C84.1175362,13.4342241 82.8982699,13.6208105 81.6908411,13.9939834 C80.4834124,14.3671563 79.3509547,14.9427953 78.2934681,15.7209005 L76.659888,11.3619235 C78.1593093,10.3615026 79.7376476,9.64691622 81.3949027,9.21816438 C83.0521579,8.78941255 84.6541712,8.57503664 86.2009426,8.57503664 C88.4106162,8.57503664 90.3243513,8.92438998 91.942148,9.62309667 C93.5599446,10.3218034 94.8068318,11.389713 95.6828096,12.8268256 C96.5587873,14.2639383 96.9967761,16.0861335 96.9967761,18.2934115 L96.9967761,33.3473647 L91.6462095,33.3473647 L91.6462095,30.6319364 C90.8570404,31.7276356 89.767987,32.5732294 88.3790494,33.1687181 C86.9901117,33.7642068 85.4275569,34.0619511 83.6913848,34.0619511 Z" id="Path"></path><path d="M113.332577,34.0619511 C110.901936,34.0619511 108.976363,33.3632444 107.555859,31.965831 C106.135355,30.5684176 105.425102,28.4564179 105.425102,25.6298317 L105.425102,2.62015008 L111.485921,2.62015008 L111.485921,9.52781848 L117.712465,9.52781848 L117.712465,14.4822841 L111.485921,14.4822841 L111.485921,24.4150349 C111.485921,25.9394858 111.785805,27.0153353 112.385574,27.6425834 C112.985342,28.2698314 113.81397,28.5834555 114.871457,28.5834555 C115.408092,28.5834555 115.917106,28.5199367 116.398499,28.3928991 C116.879892,28.2658615 117.325773,28.0991247 117.736141,27.8926886 L118.683143,32.751876 C117.988675,33.1171091 117.17583,33.4267632 116.244611,33.6808383 C115.313391,33.9349135 114.342713,34.0619511 113.332577,34.0619511 Z M100.429662,14.4822841 L100.429662,9.52781848 L106.111679,9.52781848 L106.111679,14.4822841 L100.429662,14.4822841 Z" id="Shape"></path><path d="M133.053913,34.0619511 C130.923156,34.0619511 129.159364,33.6331992 127.762534,32.7756956 C126.365705,31.9181919 125.327947,30.7708838 124.649262,29.3337712 C123.970577,27.8966585 123.631234,26.2888392 123.631234,24.5103131 L123.631234,9.52781848 L129.692053,9.52781848 L129.692053,23.462253 C129.692053,24.986704 130.126096,26.2054708 130.994182,27.1185534 C131.862268,28.031636 133.08548,28.4881773 134.663818,28.4881773 C135.673955,28.4881773 136.581499,28.2539517 137.386452,27.7855007 C138.191404,27.3170496 138.822739,26.6699519 139.280457,25.8442076 C139.738176,25.0184634 139.967035,24.0577417 139.967035,22.9620425 L139.967035,9.52781848 L146.027853,9.52781848 L146.027853,33.3473647 L140.677287,33.3473647 L140.677287,30.6319364 C139.809201,31.6641168 138.75566,32.493831 137.516664,33.121079 C136.277669,33.7483271 134.790085,34.0619511 133.053913,34.0619511 Z" id="Path"></path><path d="M153.012,33.3473647 L153.012,9.52781848 L159.072819,9.52781848 L159.072819,12.386164 C160.019822,11.1316679 161.128604,10.2225552 162.399167,9.65882599 C163.669729,9.09509673 164.999479,8.8132321 166.388417,8.8132321 C168.566523,8.8132321 170.369775,9.24992378 171.798171,10.1233071 C173.226567,10.9966905 174.287999,12.1162092 174.982468,13.4818632 C175.676937,14.8475171 176.024172,16.2766899 176.024172,17.7693815 L176.024172,33.3473647 L169.963353,33.3473647 L169.963353,19.6749452 C169.963353,18.055216 169.497743,16.7689605 168.566523,15.8161787 C167.635304,14.8633968 166.333175,14.3870059 164.660136,14.3870059 C163.571083,14.3870059 162.604351,14.6291713 161.75994,15.1135021 C160.915529,15.5978328 160.256573,16.2766899 159.783071,17.1500733 C159.30957,18.0234566 159.072819,19.0318174 159.072819,20.1751556 L159.072819,33.3473647 L153.012,33.3473647 Z" id="Path"></path><path d="M192.052196,44.0661605 C190.284457,44.0661605 188.690336,43.9113334 187.269831,43.6016793 C185.849327,43.2920252 184.637952,42.8434238 183.635708,42.255875 C182.633463,41.6683262 181.867969,40.9656496 181.339226,40.1478451 C180.810482,39.3300407 180.546111,38.4129882 180.546111,37.3966876 C180.546111,36.586823 180.763132,35.8285674 181.197175,35.1219209 C181.631218,34.4152743 182.270445,33.803906 183.114856,33.2878158 C183.959267,32.7717257 184.997024,32.386643 186.228128,32.1325678 C185.296909,31.6402972 184.610331,31.0845078 184.168397,30.4651996 C183.726462,29.8458914 183.505495,29.1392449 183.505495,28.34526 C183.505495,27.6465533 183.706733,26.9875459 184.109209,26.3682377 C184.511685,25.7489295 185.083833,25.19314 185.825652,24.7008694 C186.567471,24.2085988 187.443449,23.8116064 188.453585,23.5098921 C189.463722,23.2081779 190.568558,23.041441 191.768095,23.0096816 L192.999199,25.510734 C192.052196,25.4948543 191.25119,25.562343 190.596179,25.7132001 C189.941169,25.8640573 189.447938,26.0744633 189.116487,26.3444181 C188.785036,26.614373 188.619311,26.9399068 188.619311,27.3210195 C188.619311,27.7974104 188.899466,28.1547036 189.459776,28.3928991 C190.020086,28.6310945 190.860551,28.7978314 191.981171,28.8931096 L196.029609,29.2265832 C198.002531,29.3853802 199.703191,29.710914 201.131587,30.2031846 C202.559983,30.6954552 203.656928,31.3941619 204.422422,32.2993047 C205.187916,33.2044474 205.570663,34.3557255 205.570663,35.7531389 C205.570663,36.9282365 205.247104,38.0239356 204.599985,39.0402362 C203.952867,40.0565369 203.033485,40.9378601 201.841839,41.6842059 C200.650194,42.4305516 199.225744,43.0141305 197.568488,43.4349425 C195.911233,43.8557545 194.072469,44.0661605 192.052196,44.0661605 Z M192.786124,40.0168376 C194.980014,40.0168376 196.708294,39.6952738 197.970965,39.052146 C199.233635,38.4090183 199.864971,37.5872439 199.864971,36.586823 C199.864971,35.7928381 199.454603,35.1854397 198.633867,34.7646277 C197.813131,34.3438157 196.558352,34.0698909 194.86953,33.9428533 L190.465966,33.6093797 C189.518963,33.6887782 188.714011,33.8634549 188.051109,34.1334097 C187.388207,34.4033646 186.883139,34.7566878 186.535904,35.1933795 C186.18867,35.6300712 186.015053,36.1183719 186.015053,36.6582816 C186.015053,37.3252289 186.287316,37.9088078 186.831843,38.4090183 C187.376369,38.9092287 188.153701,39.3022512 189.163837,39.5880858 C190.173974,39.8739204 191.381403,40.0168376 192.786124,40.0168376 Z M192.549373,25.8442076 C190.5291,25.8442076 188.729794,25.4670648 187.151456,24.7127792 C185.573118,23.9584936 184.330176,22.938223 183.422632,21.6519675 C182.515087,20.365712 182.061315,18.9206595 182.061315,17.3168101 C182.061315,15.7288403 182.519033,14.2917277 183.43447,13.0054722 C184.349906,11.7192167 185.596793,10.6989462 187.175131,9.94466054 C188.753469,9.19037491 190.544883,8.8132321 192.549373,8.8132321 C194.538079,8.8132321 196.321601,9.19037491 197.899939,9.94466054 C199.478278,10.6989462 200.725165,11.7152468 201.640601,12.9935625 C202.556037,14.2718781 203.013755,15.7129607 203.013755,17.3168101 C203.013755,18.8889001 202.559983,20.3220428 201.652439,21.6162382 C200.744894,22.9104335 199.501953,23.9386439 197.923614,24.7008694 C196.345276,25.4630949 194.553862,25.8442076 192.549373,25.8442076 Z M192.549373,21.4614111 C193.543726,21.4614111 194.427595,21.2867345 195.200981,20.9373811 C195.974367,20.5880278 196.582027,20.0997271 197.023962,19.472479 C197.465896,18.845231 197.686864,18.1266747 197.686864,17.3168101 C197.686864,16.0781937 197.205471,15.0777728 196.242684,14.3155473 C195.279898,13.5533218 194.048794,13.1722091 192.549373,13.1722091 C191.539236,13.1722091 190.647475,13.3468857 189.87409,13.6962391 C189.100704,14.0455924 188.496989,14.5299232 188.062946,15.1492314 C187.628903,15.7685396 187.411882,16.4910658 187.411882,17.3168101 C187.411882,18.5395468 187.893275,19.5359978 188.856061,20.3061631 C189.818848,21.0763285 191.049951,21.4614111 192.549373,21.4614111 Z M196.195334,14.2440886 L193.922527,10.1233071 L207.062193,9.52781848 L207.038518,14.4822841 L196.195334,14.2440886 Z" id="Shape"></path></g></g></g></g></svg>