<svg xmlns="http://www.w3.org/2000/svg" xmlns:xlink="http://www.w3.org/1999/xlink" width="234px" height="167px" viewBox="0 0 234 167"><title>Logo</title><g id="Page-1" stroke="none" stroke-width="1" fill="none" fill-rule="evenodd"><g id="Landingpage" transform="translate(-273.000000, -266.000000)"><g id="Logo" transform="translate(273.000000, 266.000000)"><g id="Tecnologia" transform="translate(0.000000, 116.000000)" fill="#242627" fill-rule="nonzero"><polygon id="Path" points="0 7.84920635 0 1.91666667 27.5638533 1.91666667 27.5638533 7.84920635 17.2949668 7.84920635 17.2949668 35.9146825 10.291406 35.9146825 10.291406 7.84920635"></polygon><path d="M41.9538062,36.4166667 C39.3715716,36.4166667 37.1421422,35.8842593 35.2655182,34.8194444 C33.3888942,33.7546296 31.9514003,32.2372685 30.9530363,30.2673611 C29.9546723,28.2974537 29.4554903,25.9662698 29.4554903,23.2738095 C29.4554903,20.6574074 29.9546723,18.3604497 30.9530363,16.3829365 C31.9514003,14.4054233 33.3626215,12.8614418 35.1867,11.7509921 C37.0107786,10.6405423 39.1538832,10.0853175 41.6160139,10.0853175 C43.282456,10.0853175 44.8363006,10.3553241 46.2775479,10.8953373 C47.7187951,11.4353505 48.9798864,12.2415675 50.0608219,13.3139881 C51.1417573,14.3864087 51.9824848,15.7326389 52.5830045,17.3526786 C53.1835242,18.9727183 53.483784,20.8703704 53.483784,23.0456349 L53.483784,24.9623016 L32.2253874,24.9623016 L32.2253874,20.6041667 L50.1058608,20.6041667 L46.8630546,21.7450397 C46.8630546,20.4520503 46.6678857,19.3263889 46.2775479,18.3680556 C45.8872101,17.4097222 45.3054566,16.6681548 44.5322876,16.1433532 C43.7591185,15.6185516 42.8020402,15.3561508 41.6610528,15.3561508 C40.5200654,15.3561508 39.5554807,15.6223545 38.7672986,16.1547619 C37.9791165,16.6871693 37.3748436,17.4097222 36.9544798,18.3224206 C36.5341161,19.235119 36.3239342,20.2847222 36.3239342,21.4712302 L36.3239342,24.5515873 C36.3239342,25.9358466 36.564142,27.1185516 37.0445578,28.0997024 C37.5249735,29.0808532 38.1968049,29.8338294 39.060052,30.358631 C39.923299,30.8834325 40.9179097,31.1458333 42.0438841,31.1458333 C42.8245597,31.1458333 43.5301703,31.031746 44.160716,30.8035714 C44.7912617,30.5753968 45.3354826,30.2407407 45.7933789,29.7996032 C46.2512751,29.3584656 46.5928207,28.8260582 46.8180156,28.202381 L53.2585892,28.6359127 C52.9433163,30.2027116 52.2864979,31.5679563 51.288134,32.7316468 C50.28977,33.8953373 49.0024059,34.8004299 47.4260418,35.4469246 C45.8496776,36.0934193 44.0255991,36.4166667 41.9538062,36.4166667 Z" id="Path"></path><path d="M67.7836589,36.4166667 C65.2164373,36.4166667 63.0095275,35.8576389 61.1629295,34.7395833 C59.3163314,33.6215278 57.8976037,32.0775463 56.9067462,30.1076389 C55.9158887,28.1377315 55.42046,25.8597884 55.42046,23.2738095 C55.42046,20.6574074 55.919642,18.3604497 56.918006,16.3829365 C57.9163699,14.4054233 59.3388509,12.8614418 61.1854489,11.7509921 C63.032047,10.6405423 65.2314503,10.0853175 67.7836589,10.0853175 C69.9755558,10.0853175 71.8934655,10.4884259 73.5373881,11.2946429 C75.1813107,12.1008598 76.4836878,13.234127 77.4445193,14.6944444 C78.4053508,16.1547619 78.9308055,17.8736772 79.0208835,19.8511905 L72.445193,19.8511905 C72.325089,18.9993386 72.0698682,18.2539683 71.6795304,17.6150794 C71.2891926,16.9761905 70.7712443,16.4818122 70.1256857,16.1319444 C69.480127,15.7820767 68.7294774,15.6071429 67.8737369,15.6071429 C66.7928015,15.6071429 65.8507362,15.8999669 65.0475411,16.4856151 C64.2443461,17.0712632 63.6213069,17.9307209 63.1784236,19.0639881 C62.7355404,20.1972553 62.5140987,21.5701058 62.5140987,23.1825397 C62.5140987,24.7949735 62.7355404,26.1792328 63.1784236,27.3353175 C63.6213069,28.4914021 64.2443461,29.3736772 65.0475411,29.9821429 C65.8507362,30.5906085 66.7928015,30.8948413 67.8737369,30.8948413 C69.0747762,30.8948413 70.0881532,30.5107474 70.9138678,29.7425595 C71.7395823,28.9743717 72.2500241,27.9133598 72.445193,26.5595238 L79.0208835,26.5595238 C78.9157925,28.5066138 78.3978443,30.2217262 77.4670388,31.7048611 C76.5362333,33.187996 75.2526225,34.3440807 73.6162063,35.1731151 C71.9797902,36.0021495 70.0356077,36.4166667 67.7836589,36.4166667 Z" id="Path"></path><path d="M88.9970166,21.1746032 L88.9970166,35.9146825 L82.0384949,35.9146825 L82.0384949,10.4047619 L88.8844192,10.4047619 L88.8844192,14.9454365 L89.1321336,14.9454365 C89.7026273,13.4394841 90.6109133,12.2529762 91.8569916,11.3859127 C93.10307,10.5188492 94.6644211,10.0853175 96.5410451,10.0853175 C98.2825522,10.0853175 99.8026176,10.4732143 101.101241,11.2490079 C102.399865,12.0248016 103.409489,13.1276455 104.130113,14.5575397 C104.850736,15.9874339 105.211048,17.6987434 105.211048,19.6914683 L105.211048,35.9146825 L98.2525262,35.9146825 L98.2525262,20.9464286 C98.2525262,19.3948413 97.8546819,18.1741071 97.0589934,17.2842262 C96.2633048,16.3943452 95.1673564,15.9494048 93.7711481,15.9494048 C92.8403426,15.9494048 92.014628,16.1585648 91.2940044,16.5768849 C90.5733808,16.995205 90.0103936,17.5922619 89.6050428,18.3680556 C89.199692,19.1438492 88.9970166,20.0793651 88.9970166,21.1746032 Z" id="Path"></path><path d="M120.636897,36.4166667 C118.099702,36.4166667 115.904052,35.8652447 114.049947,34.7624008 C112.195843,33.6595569 110.769608,32.1231812 109.771244,30.1532738 C108.77288,28.1833664 108.273698,25.8902116 108.273698,23.2738095 C108.273698,20.6269841 108.77288,18.3186177 109.771244,16.3487103 C110.769608,14.3788029 112.195843,12.8424272 114.049947,11.7395833 C115.904052,10.6367394 118.099702,10.0853175 120.636897,10.0853175 C123.189106,10.0853175 125.392263,10.6367394 127.246367,11.7395833 C129.100472,12.8424272 130.526706,14.3788029 131.52507,16.3487103 C132.523434,18.3186177 133.022616,20.6269841 133.022616,23.2738095 C133.022616,25.8902116 132.523434,28.1833664 131.52507,30.1532738 C130.526706,32.1231812 129.100472,33.6595569 127.246367,34.7624008 C125.392263,35.8652447 123.189106,36.4166667 120.636897,36.4166667 Z M120.681936,30.8948413 C121.837937,30.8948413 122.806275,30.5639881 123.58695,29.9022817 C124.367626,29.2405754 124.956886,28.3316799 125.35473,27.1755952 C125.752574,26.0195106 125.951496,24.7037037 125.951496,23.2281746 C125.951496,21.7374339 125.752574,20.421627 125.35473,19.280754 C124.956886,18.139881 124.367626,17.2423942 123.58695,16.5882937 C122.806275,15.9341931 121.837937,15.6071429 120.681936,15.6071429 C119.510923,15.6071429 118.531325,15.9341931 117.743143,16.5882937 C116.954961,17.2423942 116.361948,18.139881 115.964104,19.280754 C115.566259,20.421627 115.367337,21.7374339 115.367337,23.2281746 C115.367337,24.7037037 115.566259,26.0195106 115.964104,27.1755952 C116.361948,28.3316799 116.954961,29.2405754 117.743143,29.9022817 C118.531325,30.5639881 119.510923,30.8948413 120.681936,30.8948413 Z" id="Shape"></path><polygon id="Path" points="143.066307 1.91666667 143.066307 35.9146825 136.107786 35.9146825 136.107786 1.91666667"></polygon><path d="M158.492157,36.4166667 C155.954961,36.4166667 153.759311,35.8652447 151.905206,34.7624008 C150.051102,33.6595569 148.624868,32.1231812 147.626504,30.1532738 C146.62814,28.1833664 146.128958,25.8902116 146.128958,23.2738095 C146.128958,20.6269841 146.62814,18.3186177 147.626504,16.3487103 C148.624868,14.3788029 150.051102,12.8424272 151.905206,11.7395833 C153.759311,10.6367394 155.954961,10.0853175 158.492157,10.0853175 C161.044365,10.0853175 163.247522,10.6367394 165.101626,11.7395833 C166.955731,12.8424272 168.381965,14.3788029 169.380329,16.3487103 C170.378693,18.3186177 170.877875,20.6269841 170.877875,23.2738095 C170.877875,25.8902116 170.378693,28.1833664 169.380329,30.1532738 C168.381965,32.1231812 166.955731,33.6595569 165.101626,34.7624008 C163.247522,35.8652447 161.044365,36.4166667 158.492157,36.4166667 Z M158.537196,30.8948413 C159.693196,30.8948413 160.661534,30.5639881 161.44221,29.9022817 C162.222885,29.2405754 162.812145,28.3316799 163.209989,27.1755952 C163.607834,26.0195106 163.806756,24.7037037 163.806756,23.2281746 C163.806756,21.7374339 163.607834,20.421627 163.209989,19.280754 C162.812145,18.139881 162.222885,17.2423942 161.44221,16.5882937 C160.661534,15.9341931 159.693196,15.6071429 158.537196,15.6071429 C157.366182,15.6071429 156.386585,15.9341931 155.598402,16.5882937 C154.81022,17.2423942 154.217207,18.139881 153.819363,19.280754 C153.421519,20.421627 153.222596,21.7374339 153.222596,23.2281746 C153.222596,24.7037037 153.421519,26.0195106 153.819363,27.1755952 C154.217207,28.3316799 154.81022,29.2405754 155.598402,29.9022817 C156.386585,30.5639881 157.366182,30.8948413 158.537196,30.8948413 Z" id="Shape"></path><path d="M185.222789,46 C181.829853,46 179.172553,45.3192791 177.25089,43.9578373 C175.329227,42.5963955 174.158214,40.9041005 173.73785,38.8809524 L180.178424,38.0138889 C180.373593,38.5310847 180.681359,39.0102513 181.101723,39.4513889 C181.522086,39.8925265 182.085074,40.2461971 182.790684,40.5124008 C183.496295,40.7786045 184.359542,40.9117063 185.380425,40.9117063 C186.896738,40.9117063 188.150322,40.5428241 189.14118,39.8050595 C190.132037,39.067295 190.627466,37.8237434 190.627466,36.0744048 L190.627466,31.3968254 L190.334713,31.3968254 C190.034453,32.0965608 189.576557,32.765873 188.961024,33.4047619 C188.345491,34.0436508 187.557309,34.5608466 186.596478,34.9563492 C185.635646,35.3518519 184.487152,35.5496032 183.150996,35.5496032 C181.259359,35.5496032 179.544125,35.1046627 178.005293,34.2147817 C176.466461,33.3249008 175.235396,31.9596561 174.312097,30.1190476 C173.388798,28.2784392 172.927148,25.9510582 172.927148,23.1369048 C172.927148,20.2314815 173.396304,17.8128307 174.334616,15.8809524 C175.272928,13.9490741 176.515254,12.5001653 178.061592,11.5342262 C179.60793,10.568287 181.304398,10.0853175 183.150996,10.0853175 C184.562217,10.0853175 185.74449,10.3249008 186.697815,10.8040675 C187.65114,11.2832341 188.428063,11.880291 189.028582,12.5952381 C189.629102,13.3101852 190.079492,14.0175265 190.379752,14.7172619 L190.649986,14.7172619 L190.649986,10.4047619 L197.518429,10.4047619 L197.518429,36.1884921 C197.518429,38.348545 196.992975,40.1587302 195.942065,41.6190476 C194.891156,43.0793651 193.442402,44.1746032 191.595804,44.9047619 C189.749206,45.6349206 187.624868,46 185.222789,46 Z M185.357906,30.2331349 C187.039361,30.2331349 188.341738,29.6018519 189.265037,28.3392857 C190.188336,27.0767196 190.649986,25.327381 190.649986,23.0912698 C190.649986,21.6005291 190.443557,20.3037368 190.0307,19.2008929 C189.617842,18.0980489 189.021076,17.2385913 188.2404,16.6225198 C187.459725,16.0064484 186.498893,15.6984127 185.357906,15.6984127 C184.216918,15.6984127 183.252334,16.0140542 182.464152,16.6453373 C181.67597,17.2766204 181.079203,18.1474868 180.673852,19.2579365 C180.268502,20.3683862 180.065826,21.646164 180.065826,23.0912698 C180.065826,24.5515873 180.268502,25.8179563 180.673852,26.890377 C181.079203,27.9627976 181.67597,28.7880291 182.464152,29.3660714 C183.252334,29.9441138 184.216918,30.2331349 185.357906,30.2331349 Z" id="Shape"></path><path d="M201.616976,35.9146825 L201.616976,10.4047619 L208.575498,10.4047619 L208.575498,35.9146825 L201.616976,35.9146825 Z M205.084977,7.14186508 C204.049081,7.14186508 203.163314,6.79199735 202.427678,6.0922619 C201.692041,5.39252646 201.324223,4.54828042 201.324223,3.55952381 C201.324223,2.5707672 201.692041,1.73032407 202.427678,1.03819444 C203.163314,0.346064815 204.049081,0 205.084977,0 C206.135887,0 207.02916,0.346064815 207.764796,1.03819444 C208.500433,1.73032407 208.868251,2.5707672 208.868251,3.55952381 C208.868251,4.54828042 208.500433,5.39252646 207.764796,6.0922619 C207.02916,6.79199735 206.135887,7.14186508 205.084977,7.14186508 Z" id="Shape"></path><path d="M219.835242,36.3938492 C218.243865,36.3938492 216.813877,36.108631 215.54528,35.5381944 C214.276682,34.9677579 213.282071,34.119709 212.561447,32.9940476 C211.840824,31.8683862 211.480512,30.4689153 211.480512,28.7956349 C211.480512,27.3657407 211.735733,26.1754299 212.246175,25.2247024 C212.756616,24.2739749 213.45472,23.5019841 214.340487,22.9087302 C215.226253,22.3154762 216.232124,21.8667328 217.358098,21.5625 C218.484073,21.2582672 219.677606,21.0453042 220.938697,20.9236111 C222.394957,20.7867063 223.565971,20.6498016 224.451737,20.5128968 C225.337504,20.3759921 225.986816,20.166832 226.399673,19.8854167 C226.81253,19.6040013 227.018959,19.1970899 227.018959,18.6646825 L227.018959,18.5505952 C227.018959,17.5009921 226.692426,16.6871693 226.039361,16.109127 C225.386296,15.5310847 224.46675,15.2420635 223.280724,15.2420635 C222.034645,15.2420635 221.040035,15.5196759 220.296892,16.0749008 C219.553748,16.6301257 219.062073,17.333664 218.821865,18.1855159 L212.358772,17.6607143 C212.689058,16.109127 213.334616,14.7666997 214.295448,13.6334325 C215.256279,12.5001653 216.498605,11.625496 218.022423,11.0094246 C219.546242,10.3933532 221.314022,10.0853175 223.325763,10.0853175 C224.721971,10.0853175 226.058127,10.2526455 227.334232,10.5873016 C228.610336,10.9219577 229.74757,11.4353505 230.745934,12.1274802 C231.744298,12.8196098 232.536233,13.7132937 233.12174,14.8085317 C233.707247,15.9037698 234,17.2043651 234,18.7103175 L234,35.9146825 L227.356751,35.9146825 L227.356751,32.3551587 L227.176595,32.3551587 C226.771244,33.1613757 226.230777,33.864914 225.555192,34.4657738 C224.879607,35.0666336 224.068906,35.5381944 223.123087,35.8804563 C222.177269,36.2227183 221.08132,36.3938492 219.835242,36.3938492 Z M221.839476,31.5109127 C222.86036,31.5109127 223.764893,31.3017526 224.553075,30.8834325 C225.341257,30.4651124 225.95679,29.9022817 226.399673,29.1949405 C226.842556,28.4875992 227.063998,27.692791 227.063998,26.8105159 L227.063998,24.0952381 C226.853816,24.2321429 226.557309,24.3614418 226.174478,24.4831349 C225.791647,24.604828 225.36753,24.7113095 224.902127,24.8025794 C224.436724,24.8938492 223.971321,24.9737103 223.505919,25.0421627 C223.040516,25.1106151 222.620152,25.1752646 222.244827,25.2361111 C221.419113,25.3578042 220.698489,25.5517526 220.082956,25.8179563 C219.467424,26.0841601 218.990761,26.4416336 218.652969,26.890377 C218.315177,27.3391204 218.14628,27.8981481 218.14628,28.5674603 C218.14628,29.5257937 218.491579,30.2559524 219.182177,30.7579365 C219.872775,31.2599206 220.758541,31.5109127 221.839476,31.5109127 Z" id="Shape"></path></g><g id="Group-11"><rect id="Rectangle" fill="#DEE0FF" x="28.6958298" y="86.4" width="38.2611065" height="9.6"></rect><path d="M65.5360003,87.6521739 L27.3442219,87.6521739 C26.789433,87.6521739 26.3391675,87.3405209 26.3391675,86.9565217 C26.3391675,86.5725225 26.789433,86.2608696 27.3442219,86.2608696 L65.5360003,86.2608696 C66.0907892,86.2608696 66.5410547,86.5725225 66.5410547,86.9565217 C66.5410547,87.3405209 66.0907892,87.6521739 65.5360003,87.6521739 Z" id="Fill-1" fill="#000000"></path><path d="M27.6006707,96 C27.0363969,96 26.5784335,95.5424615 26.5784335,94.9787112 L26.5784335,79.6597945 L20.956108,79.6597945 C16.1638739,79.6597945 12.2670499,75.7665859 12.2670499,70.978798 L12.2670499,59.234437 L1.02260506,59.234437 C0.28250474,59.234437 -0.212273723,58.4745988 0.0903275806,57.7964587 L8.17833139,39.6089092 L8.17833139,35.7443556 C8.17833139,16.197263 23.8883091,0.248776362 43.4943781,0.00301279836 C54.0845863,-0.135880218 64.1890916,4.53342879 71.209802,12.7931761 C71.5737233,13.2221225 71.5205681,13.8675289 71.0912234,14.2311544 C70.6618788,14.5947381 70.015873,14.5416218 69.6519098,14.1126859 C63.1177398,6.42844366 53.7702612,2.04098885 43.9410573,2.04098885 C43.8020353,2.04098885 43.6630133,2.04098885 43.5239809,2.04507794 C25.1604321,2.27384721 10.22402,17.3932739 10.22402,35.7439686 L10.22402,39.829082 C10.22402,39.9720641 10.1953908,40.1150462 10.1340603,40.2457715 L2.59812594,57.1909078 L13.2909201,57.1909078 C13.8551938,57.1909078 14.3131573,57.6484463 14.3131573,58.2121966 L14.3131573,70.9783064 C14.3131573,74.6386148 17.2940544,77.6167463 20.9577619,77.6167463 L27.6023664,77.6167463 C28.1666402,77.6167463 28.6246036,78.0742849 28.6246036,78.6380351 L28.6246036,93.9569455 L65.4249753,93.9569455 C65.6335135,91.6242833 63.9979089,75.0833528 72.8914018,53.7343426 C73.1081154,53.2114414 73.7051008,52.9663262 74.2284457,53.1828492 C74.7477396,53.3993616 74.9971753,53.9957932 74.7804513,54.5186526 C65.9073704,75.8143268 67.7147297,92.114203 67.469366,94.9786537 C67.469366,95.5424039 67.0114025,96 66.4471288,96 L27.6006707,96 Z" id="Fill-2" fill="#000000"></path><g id="Group-40" transform="translate(54.658724, 13.714286)"><path d="M23.9131915,46.5375298 C23.9131915,47.3445272 23.214786,48 22.3549098,48 L7.70738815,48 C6.84752153,48 6.1491064,47.3445362 6.1491064,46.5375298 L6.1491064,39.7714286 L23.9129993,39.7714286 L23.9131915,46.5375298 Z" id="Path" stroke="#000000" stroke-width="1.5" fill="#010ED0"></path><path d="M30.0622979,14.6503694 C30.0622979,18.1545131 28.7718994,21.5474343 26.4287604,24.2015876 C21.6601785,29.6060867 22.5384093,35.9903783 22.5384093,37.0285714 L15.636019,37.0285714 L14.4280134,37.0285714 L7.53194611,37.0285714 C7.53194611,35.7660391 8.56237374,30.1500964 3.34038299,23.8495674 C0.740511609,20.716271 -0.400936717,16.767158 0.125425431,12.731266 C1.03539259,5.75699398 7.25613946,0 15.030194,0 C23.3181028,0 30.0622979,6.57257341 30.0622979,14.6503694 Z" id="Path-Copy" fill="#DEE0FF"></path><path d="M15.030194,-1.125 C19.4809645,-1.125 23.5162776,0.641450219 26.4395013,3.49043971 C29.3732818,6.34971797 31.1872979,10.2981419 31.1872979,14.6503694 C31.1872979,18.4272794 29.7979263,22.0850809 27.2723352,24.9459037 C23.2379588,29.518287 23.5521684,34.8420095 23.6434918,36.5309064 C23.6585655,36.8096736 23.6782805,37.1875466 23.7209476,37.6426997 L14.5107824,38.2272517 L14.51,38.153 L6.40694611,38.1535714 L6.40694611,37.0285714 C6.40694611,36.8761473 6.41907536,36.6675334 6.43562244,36.4078395 C6.55041965,34.6061846 6.84664451,29.842967 2.47461279,24.5679454 C-0.327263557,21.191198 -1.55738607,16.9352444 -0.990119297,12.5857154 C-0.491412112,8.76346809 1.48266788,5.27694491 4.41055447,2.77602027 C7.2285296,0.368979157 10.927668,-1.125 15.030194,-1.125 Z" id="Path" stroke="#000000" stroke-width="2.25"></path></g><g id="Group-41-Copy" transform="translate(96.891068, 29.018433) scale(-1, 1) translate(-96.891068, -29.018433) translate(88.782135, 10.813945)" fill="#000000"><path d="M14.1598003,18.90014 L1.08919139,18.90014 C0.48795899,18.90014 0,18.588487 0,18.2044878 C0,17.8204886 0.48795899,17.5088356 1.08919139,17.5088356 L14.1598003,17.5088356 C14.7610327,17.5088356 15.2489917,17.8204886 15.2489917,18.2044878 C15.2489917,18.588487 14.7610327,18.90014 14.1598003,18.90014 Z" id="Fill-7"></path><path d="M16.148472,4.67507436 L8.37125428,4.66098143 C7.83462874,4.66000917 7.39854093,4.34813075 7.39784563,3.96482602 C7.39715199,3.58152128 7.83211256,3.27122101 8.36873809,3.27219099 L16.1459558,3.28628392 C16.6825813,3.28725617 17.1186691,3.59913459 17.1193644,3.98243933 C17.1200581,4.36574406 16.6850975,4.67604433 16.148472,4.67507436 Z" id="Fill-8-Copy" transform="translate(12.258605, 3.973633) rotate(45.000000) translate(-12.258605, -3.973633) "></path><path d="M16.148472,33.1367846 L8.37125428,33.1226917 C7.83462874,33.1217194 7.39854093,32.809841 7.39784563,32.4265363 C7.39715199,32.0432315 7.83211256,31.7329313 8.36873809,31.7339012 L16.1459558,31.7479942 C16.6825813,31.7489664 17.1186691,32.0608449 17.1193644,32.4441496 C17.1200581,32.8274543 16.6850975,33.1377546 16.148472,33.1367846 Z" id="Fill-8-Copy-2" transform="translate(12.258605, 32.435343) scale(1, -1) rotate(45.000000) translate(-12.258605, -32.435343) "></path></g></g></g></g></g></svg>